<svg width="21" height="20" viewBox="0 0 21 20" fill="none" xmlns="http://www.w3.org/2000/svg">
<path d="M20.7497 9.99C20.7497 4.475 16.1018 0 10.3749 0C4.64794 0 0 4.475 0 9.99C0 13.0275 1.43173 15.765 3.67271 17.6025C3.69345 17.6225 3.7142 17.6225 3.7142 17.6425C3.90095 17.7825 4.0877 17.9225 4.2952 18.0625C4.39895 18.1225 4.48195 18.2013 4.58569 18.2812C6.30023 19.4017 8.32416 20.0004 10.3956 20C12.4671 20.0004 14.491 19.4017 16.2056 18.2812C16.3093 18.2213 16.3923 18.1425 16.496 18.0812C16.6828 17.9425 16.8903 17.8025 17.077 17.6625C17.0978 17.6425 17.1185 17.6425 17.1185 17.6225C19.318 15.7637 20.7497 13.0275 20.7497 9.99ZM10.3749 18.7412C8.4244 18.7412 6.63992 18.1413 5.16669 17.1425C5.18744 16.9825 5.22894 16.8237 5.27044 16.6637C5.39408 16.2301 5.57541 15.8138 5.80993 15.425C6.03818 15.045 6.30792 14.705 6.63992 14.405C6.95116 14.105 7.32466 13.8263 7.69816 13.6063C8.0924 13.3863 8.5074 13.2262 8.96389 13.1062C9.42394 12.9867 9.89841 12.9266 10.3749 12.9275C11.7893 12.9178 13.1517 13.4408 14.1721 14.385C14.6493 14.845 15.0228 15.385 15.2926 16.0037C15.4378 16.3638 15.5416 16.7437 15.6038 17.1425C14.0724 18.1802 12.2468 18.7384 10.3749 18.7412ZM7.20016 9.49125C7.01733 9.08778 6.92539 8.6515 6.93042 8.21125C6.93042 7.7725 7.01341 7.3325 7.20016 6.9325C7.38691 6.5325 7.63591 6.17375 7.94715 5.87375C8.2584 5.57375 8.63189 5.335 9.04689 5.155C9.46188 4.975 9.91838 4.895 10.3749 4.895C10.8521 4.895 11.2879 4.975 11.7029 5.155C12.1179 5.335 12.4913 5.575 12.8026 5.87375C13.1138 6.17375 13.3628 6.53375 13.5496 6.9325C13.7363 7.3325 13.8193 7.7725 13.8193 8.21125C13.8193 8.67125 13.7363 9.09125 13.5496 9.49C13.3694 9.88408 13.1162 10.2433 12.8026 10.55C12.4843 10.8519 12.1116 11.0954 11.7029 11.2688C10.8454 11.6084 9.88359 11.6084 9.02614 11.2688C8.61738 11.0954 8.24474 10.8519 7.9264 10.55C7.61232 10.2477 7.36524 9.8871 7.20016 9.49V9.49125ZM16.828 16.1238C16.828 16.0837 16.8073 16.0638 16.8073 16.0238C16.6032 15.398 16.3024 14.8055 15.9151 14.2663C15.5273 13.723 15.0508 13.2438 14.5041 12.8475C14.0865 12.5447 13.6339 12.2897 13.1553 12.0875C13.3731 11.9491 13.5748 11.7886 13.7571 11.6087C14.0664 11.3144 14.3381 10.9854 14.5663 10.6287C15.0259 9.90101 15.2632 9.06311 15.2511 8.21125C15.2575 7.58064 15.1304 6.9554 14.8776 6.37375C14.628 5.8133 14.2687 5.30445 13.8193 4.875C13.3707 4.45004 12.8426 4.11074 12.2631 3.875C11.6586 3.63174 11.0091 3.50968 10.3541 3.51625C9.69904 3.51007 9.04951 3.63256 8.44515 3.87625C7.86059 4.11148 7.33129 4.45798 6.88892 4.895C6.44804 5.32698 6.09601 5.83552 5.85143 6.39375C5.5986 6.9754 5.47152 7.60064 5.47793 8.23125C5.47793 8.67125 5.54018 9.09125 5.66468 9.49C5.78918 9.91 5.95518 10.29 6.18342 10.6488C6.39092 11.0087 6.68142 11.3288 6.99266 11.6288C7.17941 11.8088 7.38691 11.9675 7.61516 12.1075C7.13511 12.3151 6.68235 12.5769 6.26642 12.8875C5.72693 13.2875 5.24969 13.7662 4.85544 14.2863C4.46413 14.8233 4.16302 15.4164 3.9632 16.0438C3.94245 16.0837 3.94245 16.1238 3.94245 16.1437C2.30322 14.545 1.28648 12.3875 1.28648 9.99C1.28648 5.175 5.37418 1.23875 10.3749 1.23875C15.3756 1.23875 19.4633 5.175 19.4633 9.99C19.4605 12.2899 18.5131 14.4953 16.828 16.1238Z" fill="black"/>
</svg>
