<svg width="32" height="30" viewBox="0 0 32 30" fill="none" xmlns="http://www.w3.org/2000/svg">
<path d="M30.12 8H1.88C1.38139 8 0.903208 8.19807 0.550639 8.55064C0.198071 8.90321 0 9.38139 0 9.88V28.12C0 28.6186 0.198071 29.0968 0.550639 29.4494C0.903208 29.8019 1.38139 30 1.88 30H30.12C30.6186 30 31.0968 29.8019 31.4494 29.4494C31.8019 29.0968 32 28.6186 32 28.12V9.88C32 9.38139 31.8019 8.90321 31.4494 8.55064C31.0968 8.19807 30.6186 8 30.12 8ZM30 28H2V10H30V28Z" fill="#F4F5F9"/>
<path d="M4.5 14C4.79667 14 5.08668 13.912 5.33335 13.7472C5.58003 13.5824 5.77229 13.3481 5.88582 13.074C5.99935 12.7999 6.02906 12.4983 5.97118 12.2074C5.9133 11.9164 5.77044 11.6491 5.56066 11.4393C5.35088 11.2296 5.08361 11.0867 4.79264 11.0288C4.50166 10.9709 4.20006 11.0006 3.92597 11.1142C3.65189 11.2277 3.41762 11.42 3.2528 11.6666C3.08797 11.9133 3 12.2033 3 12.5C3 12.8978 3.15804 13.2794 3.43934 13.5607C3.72064 13.842 4.10218 14 4.5 14ZM4.5 11.7C4.65902 11.696 4.81561 11.7395 4.94977 11.825C5.08394 11.9104 5.18958 12.034 5.25321 12.1797C5.31684 12.3255 5.33556 12.487 5.30699 12.6435C5.27842 12.7999 5.20384 12.9443 5.0928 13.0582C4.98176 13.1721 4.83928 13.2503 4.68357 13.2828C4.52787 13.3154 4.366 13.3007 4.21865 13.2408C4.0713 13.1809 3.94516 13.0784 3.85634 12.9465C3.76752 12.8145 3.72005 12.6591 3.72 12.5C3.71993 12.2912 3.80147 12.0907 3.9472 11.9413C4.09293 11.7918 4.29131 11.7052 4.5 11.7Z" fill="#F4F5F9"/>
<path d="M28.1396 1C28.1396 0.734784 28.0343 0.48043 27.8468 0.292893C27.6592 0.105357 27.4049 0 27.1396 0H5.13965C4.87443 0 4.62008 0.105357 4.43254 0.292893C4.24501 0.48043 4.13965 0.734784 4.13965 1V2H28.1396V1Z" fill="#F4F5F9"/>
<path d="M30.1201 5C30.1201 4.73478 30.0148 4.48043 29.8272 4.29289C29.6397 4.10536 29.3853 4 29.1201 4H3.12012C2.8549 4 2.60055 4.10536 2.41301 4.29289C2.22547 4.48043 2.12012 4.73478 2.12012 5V6H30.1201V5Z" fill="#F4F5F9"/>
<path d="M23.9384 19.3214C23.8109 17.6798 23.6009 17.3601 23.5215 17.2398C23.3391 16.9619 23.0472 16.7803 22.7383 16.5898C22.7209 16.5792 22.7058 16.5641 22.6943 16.5457C22.6828 16.5273 22.6752 16.506 22.672 16.4837C22.6689 16.4613 22.6704 16.4384 22.6763 16.4168C22.6822 16.3951 22.6924 16.3754 22.7061 16.3591C22.7633 16.2925 22.8073 16.2126 22.835 16.1247C22.8627 16.0368 22.8735 15.9431 22.8666 15.85C22.8533 15.6849 22.7863 15.5316 22.679 15.4205C22.5718 15.3093 22.432 15.2485 22.2874 15.25H21.7348C21.7112 15.2502 21.6875 15.2519 21.664 15.2553C21.6479 15.2473 21.6312 15.2409 21.6141 15.2362C21.2868 14.4428 20.8387 13.3565 19.9099 12.8263C18.5324 12.0406 15.9947 12 15.4988 12C15.0029 12 12.4653 12.0406 11.0895 12.8251C10.1607 13.3552 9.71266 14.4416 9.38536 15.235L9.38253 15.2415C9.36621 15.2441 9.35018 15.2487 9.33471 15.2553C9.31121 15.2519 9.28755 15.2502 9.26387 15.25H8.71022C8.56566 15.2485 8.42588 15.3093 8.31861 15.4205C8.21133 15.5316 8.1444 15.6849 8.13108 15.85C8.12478 15.9429 8.13605 16.0363 8.16411 16.1237C8.19217 16.2111 8.23636 16.2906 8.29366 16.3566C8.30737 16.3729 8.31758 16.3927 8.3235 16.4143C8.32941 16.4359 8.33086 16.4588 8.32773 16.4812C8.32461 16.5036 8.31699 16.5248 8.30548 16.5433C8.29398 16.5617 8.2789 16.5768 8.26143 16.5874C7.95255 16.7791 7.65926 16.9607 7.47825 17.2374C7.39891 17.3592 7.18921 17.6773 7.06133 19.319C6.99049 20.2428 6.97986 21.1991 7.03548 21.815C7.15201 23.0947 7.37057 23.8682 7.37978 23.9003C7.41331 24.0171 7.47505 24.1206 7.55781 24.1987C7.64057 24.2769 7.74097 24.3265 7.84735 24.3419V24.35C7.84735 24.5224 7.90706 24.6877 8.01334 24.8096C8.11963 24.9315 8.26378 25 8.4141 25H10.3977C10.548 25 10.6922 24.9315 10.7985 24.8096C10.9048 24.6877 10.9645 24.5224 10.9645 24.35C11.2695 24.35 11.4816 24.2874 11.7066 24.2208C12.0313 24.1205 12.3632 24.0537 12.6984 24.0213C13.7791 23.9031 14.8538 23.8625 15.4988 23.8625C16.1308 23.8625 17.2529 23.9031 18.3354 24.0213C18.6719 24.0538 19.0051 24.1208 19.3311 24.2216C19.5465 24.285 19.7509 24.3435 20.0339 24.3496C20.0339 24.522 20.0936 24.6873 20.1999 24.8092C20.3062 24.9311 20.4503 24.9996 20.6006 24.9996H22.5843C22.7346 24.9996 22.8787 24.9311 22.985 24.8092C23.0913 24.6873 23.151 24.522 23.151 24.3496V24.3447C23.2576 24.3297 23.3583 24.2802 23.4414 24.202C23.5244 24.1238 23.5864 24.0201 23.62 23.9031C23.6292 23.871 23.8478 23.0975 23.9643 21.8178C24.0199 21.2016 24.01 20.2469 23.9384 19.3214ZM10.4098 15.7907C10.6931 15.1001 11.0173 14.3185 11.5943 13.989C12.4281 13.5129 14.1563 13.2984 15.4988 13.2984C16.8413 13.2984 18.5695 13.5113 19.4034 13.989C19.9804 14.3185 20.3031 15.1005 20.5879 15.7907L20.6233 15.8789C20.644 15.9291 20.6532 15.9845 20.6499 16.0399C20.6466 16.0953 20.631 16.1488 20.6046 16.1953C20.5782 16.2419 20.5418 16.2798 20.4989 16.3057C20.4561 16.3315 20.4082 16.3443 20.3598 16.3428C19.1827 16.3062 16.7032 16.1892 15.4988 16.1892C14.2945 16.1892 11.815 16.3091 10.6361 16.3457C10.5877 16.3471 10.5398 16.3343 10.4969 16.3085C10.4541 16.2827 10.4177 16.2447 10.3913 16.1982C10.3648 16.1517 10.3492 16.0981 10.346 16.0427C10.3427 15.9873 10.3519 15.9319 10.3726 15.8817C10.385 15.8517 10.3981 15.8212 10.4098 15.7907ZM10.8323 19.0257C10.223 19.1098 9.6098 19.1513 8.99608 19.15C8.62061 19.15 8.23344 19.0281 8.16154 18.6446C8.1123 18.3867 8.11761 18.2416 8.14418 18.0958C8.1665 17.9719 8.20192 17.8817 8.37903 17.85C8.83951 17.7687 9.09703 17.8707 9.85081 18.1254C10.3506 18.294 10.7112 18.5187 10.9167 18.6966C11.0197 18.7844 10.9648 19.0135 10.8323 19.0257ZM18.674 22.3569C18.2079 22.4179 17.2756 22.3955 15.5095 22.3955C13.7433 22.3955 12.8114 22.4179 12.3452 22.3569C11.8642 22.2956 11.251 21.774 11.6697 21.3092C11.9485 21.0029 12.5988 20.7738 13.4649 20.645C14.331 20.5162 14.6976 20.45 15.5059 20.45C16.3142 20.45 16.6437 20.4906 17.5469 20.6454C18.4502 20.8002 19.1328 21.0322 19.3421 21.3096C19.7239 21.8069 19.1547 22.2923 18.674 22.3594V22.3569ZM22.8361 18.6442C22.7653 19.0293 22.3756 19.1496 22.0016 19.1496C21.3761 19.1498 20.7512 19.1083 20.1299 19.0253C20.0215 19.0135 19.9712 18.7953 20.081 18.6962C20.2833 18.5138 20.6478 18.2936 21.1468 18.125C21.9006 17.8703 22.3352 17.7683 22.7086 17.8533C22.7996 17.874 22.8478 17.9861 22.8535 18.0564C22.8785 18.2521 22.8726 18.4513 22.8361 18.6446V18.6442Z" fill="#F4F5F9"/>
</svg>
