<svg width="21" height="20" viewBox="0 0 21 20" fill="none" xmlns="http://www.w3.org/2000/svg">
<path d="M19.743 10.3311L10.743 0.331148C10.364 -0.0908515 9.63598 -0.0908515 9.25698 0.331148L0.256984 10.3311C0.12744 10.4747 0.0424085 10.6529 0.0122281 10.8439C-0.0179524 11.0349 0.00801875 11.2306 0.0869837 11.4071C0.246984 11.7681 0.604984 12.0001 0.999984 12.0001H2.99998V19.0001C2.99998 19.2654 3.10534 19.5197 3.29288 19.7073C3.48041 19.8948 3.73477 20.0001 3.99998 20.0001H6.99998C7.2652 20.0001 7.51955 19.8948 7.70709 19.7073C7.89463 19.5197 7.99998 19.2654 7.99998 19.0001V15.0001H12V19.0001C12 19.2654 12.1053 19.5197 12.2929 19.7073C12.4804 19.8948 12.7348 20.0001 13 20.0001H16C16.2652 20.0001 16.5196 19.8948 16.7071 19.7073C16.8946 19.5197 17 19.2654 17 19.0001V12.0001H19C19.1937 12.001 19.3834 11.9454 19.546 11.8403C19.7087 11.7352 19.8372 11.585 19.916 11.408C19.9947 11.2311 20.0203 11.0351 19.9896 10.8439C19.9589 10.6527 19.8732 10.4745 19.743 10.3311Z" fill="black"/>
</svg>
