<svg width="147" height="40" viewBox="0 0 147 40" fill="none" xmlns="http://www.w3.org/2000/svg">
<g id="main-logo">
<path id="Rectangle 1" d="M0 0H147V40H0V0Z" fill="black"/>
<g id="G10 RENTALS">
<path d="M37.7637 24.7422C37.3945 25.1842 36.8727 25.5283 36.1982 25.7744C35.5238 26.016 34.7764 26.1367 33.9561 26.1367C33.0947 26.1367 32.3382 25.9499 31.6865 25.5762C31.0394 25.1979 30.5381 24.651 30.1826 23.9355C29.8317 23.2201 29.6517 22.3792 29.6426 21.4131V20.7363C29.6426 19.7428 29.8089 18.8838 30.1416 18.1592C30.4788 17.43 30.9619 16.874 31.5908 16.4912C32.2243 16.1038 32.9648 15.9102 33.8125 15.9102C34.9928 15.9102 35.9157 16.1927 36.5811 16.7578C37.2464 17.3184 37.6406 18.1364 37.7637 19.2119H35.7676C35.6764 18.6423 35.4736 18.2253 35.1592 17.9609C34.8493 17.6966 34.4209 17.5645 33.874 17.5645C33.1768 17.5645 32.6458 17.8265 32.2812 18.3506C31.9167 18.8747 31.7321 19.654 31.7275 20.6885V21.3242C31.7275 22.3678 31.9258 23.1562 32.3223 23.6895C32.7188 24.2227 33.2998 24.4893 34.0654 24.4893C34.8356 24.4893 35.3848 24.3252 35.7129 23.9971V22.2812H33.8467V20.7705H37.7637V24.7422Z" fill="white"/>
<path d="M44.0186 26H42.043V18.3848L39.6846 19.1162V17.5098L43.8066 16.0332H44.0186V26Z" fill="white"/>
<path d="M53.958 21.8848C53.958 23.2611 53.6732 24.3138 53.1035 25.043C52.5339 25.7721 51.6999 26.1367 50.6016 26.1367C49.5169 26.1367 48.6875 25.779 48.1133 25.0635C47.5391 24.348 47.2451 23.3226 47.2314 21.9873V20.1553C47.2314 18.7653 47.5186 17.7103 48.0928 16.9902C48.6715 16.2702 49.5033 15.9102 50.5879 15.9102C51.6725 15.9102 52.502 16.2679 53.0762 16.9834C53.6504 17.6943 53.9443 18.7174 53.958 20.0527V21.8848ZM51.9824 19.875C51.9824 19.0501 51.8685 18.4508 51.6406 18.0771C51.4173 17.6989 51.0664 17.5098 50.5879 17.5098C50.123 17.5098 49.779 17.6898 49.5557 18.0498C49.3369 18.4053 49.2207 18.9635 49.207 19.7246V22.1445C49.207 22.9557 49.3164 23.5596 49.5352 23.9561C49.7585 24.348 50.1139 24.5439 50.6016 24.5439C51.0846 24.5439 51.4333 24.3548 51.6475 23.9766C51.8617 23.5983 51.9733 23.0195 51.9824 22.2402V19.875Z" fill="white"/>
<path d="M62.6807 22.3564H61.0469V26H58.9961V16.0469H62.6943C63.8701 16.0469 64.777 16.3089 65.415 16.833C66.0531 17.3571 66.3721 18.0977 66.3721 19.0547C66.3721 19.7337 66.224 20.3011 65.9277 20.7568C65.6361 21.208 65.1917 21.568 64.5947 21.8369L66.748 25.9043V26H64.5469L62.6807 22.3564ZM61.0469 20.6953H62.7012C63.2161 20.6953 63.6149 20.5654 63.8975 20.3057C64.18 20.0413 64.3213 19.679 64.3213 19.2188C64.3213 18.7493 64.1868 18.3802 63.918 18.1113C63.6536 17.8424 63.2458 17.708 62.6943 17.708H61.0469V20.6953Z" fill="white"/>
<path d="M73.9258 21.6865H69.9883V24.3525H74.6094V26H67.9375V16.0469H74.5957V17.708H69.9883V20.0801H73.9258V21.6865Z" fill="white"/>
<path d="M83.9062 26H81.8555L77.8633 19.4512V26H75.8125V16.0469H77.8633L81.8623 22.6094V16.0469H83.9062V26Z" fill="white"/>
<path d="M92.9844 17.708H89.9355V26H87.8848V17.708H84.877V16.0469H92.9844V17.708Z" fill="white"/>
<path d="M98.959 23.9492H95.3633L94.6797 26H92.499L96.2041 16.0469H98.1045L101.83 26H99.6494L98.959 23.9492ZM95.917 22.2881H98.4053L97.1543 18.5625L95.917 22.2881Z" fill="white"/>
<path d="M104.811 24.3525H109.165V26H102.76V16.0469H104.811V24.3525Z" fill="white"/>
<path d="M115.509 23.3887C115.509 23.0013 115.372 22.7051 115.099 22.5C114.825 22.2904 114.333 22.0716 113.622 21.8438C112.911 21.6113 112.348 21.3835 111.934 21.1602C110.803 20.5495 110.238 19.7269 110.238 18.6924C110.238 18.1546 110.389 17.6761 110.689 17.2568C110.995 16.833 111.43 16.5026 111.995 16.2656C112.565 16.0286 113.203 15.9102 113.909 15.9102C114.62 15.9102 115.254 16.04 115.81 16.2998C116.366 16.555 116.796 16.9173 117.102 17.3867C117.411 17.8561 117.566 18.3893 117.566 18.9863H115.516C115.516 18.5306 115.372 18.1774 115.085 17.9268C114.798 17.6715 114.395 17.5439 113.875 17.5439C113.374 17.5439 112.984 17.651 112.706 17.8652C112.428 18.0749 112.289 18.3529 112.289 18.6992C112.289 19.0228 112.451 19.2939 112.774 19.5127C113.103 19.7314 113.583 19.9365 114.217 20.1279C115.383 20.4788 116.233 20.9141 116.767 21.4336C117.3 21.9531 117.566 22.6003 117.566 23.375C117.566 24.2363 117.241 24.9131 116.589 25.4053C115.937 25.8929 115.06 26.1367 113.957 26.1367C113.191 26.1367 112.494 25.9977 111.865 25.7197C111.236 25.4372 110.756 25.0521 110.423 24.5645C110.095 24.0768 109.931 23.5117 109.931 22.8691H111.988C111.988 23.9674 112.645 24.5166 113.957 24.5166C114.445 24.5166 114.825 24.4186 115.099 24.2227C115.372 24.0221 115.509 23.7441 115.509 23.3887Z" fill="white"/>
</g>
</g>
</svg>
